<?xml version="1.0" encoding="UTF-8" standalone="no"?>
<!DOCTYPE svg PUBLIC "-//W3C//DTD SVG 1.1//EN" "http://www.w3.org/Graphics/SVG/1.1/DTD/svg11.dtd">
<svg width="100%" height="100%" viewBox="0 0 115 67" version="1.1" xmlns="http://www.w3.org/2000/svg" xmlns:xlink="http://www.w3.org/1999/xlink" xml:space="preserve" style="fill-rule:evenodd;clip-rule:evenodd;stroke-linejoin:round;stroke-miterlimit:1.41421;">
    <g id="Artboard1" transform="matrix(0.998386,0,0,0.969501,0,-19.3101)">
        <rect x="0" y="19.918" width="114.504" height="68.346" style="fill:none;"/>
        <g id="Layer_2" transform="matrix(1.00162,0,0,1.03146,1.7317,-9.60756)">
            <g transform="matrix(0.546179,0,0,0.546179,21.5499,23.0684)">
                <path d="M90.94,17.46C91.312,17.655 91.547,18.041 91.547,18.461C91.547,18.65 91.5,18.835 91.41,19L78.06,36.93L64.12,55.66L77,36.19L89.36,17.54C89.775,17.084 90.491,17.048 90.95,17.46L90.94,17.46Z" style="fill:rgb(199,167,91);fill-rule:nonzero;"/>
            </g>
            <g transform="matrix(0.546179,0,0,0.546179,21.5499,23.0684)">
                <path d="M85.08,13.67C85.631,13.942 85.865,14.616 85.6,15.17L73,33.62L59.76,52.87L71.88,32.92L83.5,13.81C83.897,13.342 84.607,13.28 85.08,13.67Z" style="fill:rgb(199,167,91);fill-rule:nonzero;"/>
            </g>
            <g transform="matrix(0.546179,0,0,0.546179,23.9203,30.3981)">
                <ellipse cx="55.41" cy="44.42" rx="23.99" ry="18.37" style="fill:rgb(250,235,206);"/>
            </g>
            <g transform="matrix(0.546179,0,0,0.546179,21.5499,23.0684)">
                <path d="M86.59,52.14L32.92,52.14C32.92,52.14 31.72,69.38 48.09,76.66C54.02,79.3 48.92,80.38 48.92,80.38C48.92,80.38 47.42,81.62 53.25,81.47C56.49,81.38 58.25,81.4 59.25,81.47L59.25,81.53L60.25,81.53L60.25,81.47C61.25,81.47 63.01,81.47 66.25,81.47C72.08,81.63 70.58,80.38 70.58,80.38C70.58,80.38 65.48,79.29 71.41,76.66C87.79,69.38 86.59,52.14 86.59,52.14Z" style="fill:rgb(199,167,91);fill-rule:nonzero;"/>
            </g>
        </g>
        <g id="Layer_4" transform="matrix(1.00162,0,0,1.03146,1.7317,-9.60756)">
            <g transform="matrix(1,0,0,1,-4.34,-13.42)">
                <path d="M85.29,75.5C85.29,75.889 85.611,76.21 86,76.21L109,76.21C109.389,76.21 109.71,76.531 109.71,76.92L109.71,99.67C109.71,100.059 109.389,100.38 109,100.38L10.49,100.38C10.101,100.38 9.78,100.059 9.78,99.67L9.78,76.93C9.78,76.541 10.101,76.22 10.49,76.22L33.49,76.22C33.879,76.22 34.2,75.899 34.2,75.51C34.2,75.121 33.879,74.8 33.49,74.8L9.06,74.8C8.671,74.8 8.35,75.121 8.35,75.51L8.35,101.11C8.35,101.499 8.671,101.82 9.06,101.82L110.46,101.82C110.849,101.82 111.17,101.499 111.17,101.11L111.17,75.5C111.17,75.111 110.849,74.79 110.46,74.79L86,74.79C85.611,74.79 85.29,75.111 85.29,75.5Z" style="fill:white;fill-rule:nonzero;"/>
            </g>
            <g transform="matrix(1,0,0,1,14.7,78.843)">
                <text x="0px" y="0px" style="font-family:'MyanmarMN', 'Myanmar MN', serif;font-weight:250;font-size:10px;fill:white;">IMPERIAL CHINA</text>
            </g>
            <g transform="matrix(1,0,0,1,-4.34,-13.42)">
                <path d="M5.77,73.31C5.775,72.529 6.419,71.89 7.2,71.89L29.51,71.89C29.902,71.89 30.225,71.567 30.225,71.175C30.225,70.783 29.902,70.46 29.51,70.46L5.77,70.46C4.986,70.46 4.34,71.106 4.34,71.89L4.34,78.41C4.34,78.799 4.661,79.12 5.05,79.12C5.439,79.12 5.76,78.799 5.76,78.41L5.77,73.31Z" style="fill:white;fill-rule:nonzero;"/>
            </g>
            <g transform="matrix(1,0,0,1,-4.34,-13.42)">
                <path d="M114,103.73C114,104.514 113.354,105.16 112.57,105.16L90.24,105.16C89.848,105.16 89.525,105.483 89.525,105.875C89.525,106.267 89.848,106.59 90.24,106.59L114,106.59C114.784,106.59 115.43,105.944 115.43,105.16L115.43,98.63C115.43,98.241 115.109,97.92 114.72,97.92C114.331,97.92 114.01,98.241 114.01,98.63L114,103.73Z" style="fill:white;fill-rule:nonzero;"/>
            </g>
        </g>
    </g>
</svg>
