<?xml version="1.0" encoding="utf-8"?>
<!-- Generator: Adobe Illustrator 20.0.0, SVG Export Plug-In . SVG Version: 6.00 Build 0)  -->
<svg version="1.1" id="Layer_1" xmlns="http://www.w3.org/2000/svg" xmlns:xlink="http://www.w3.org/1999/xlink" x="0px" y="0px"
	 viewBox="0 0 918.5 297.4" style="enable-background:new 0 0 918.5 297.4;" xml:space="preserve">
<style type="text/css">
	.st0{fill:#C7A75B;}
	.st1{fill:#FAEBCE;}
	.st2{fill:#FFFFFF;}
	.st3{font-family:'MyanmarMN';}
	.st4{font-size:78.26px;}
</style>
<title>logo-top</title>
<g id="Layer_2">
	<path class="st0" d="M243.1,49.1c1.6,0.9,2.3,2.9,1.4,4.6c0,0,0,0,0,0l-39.8,53.5L163.1,163l38.4-58.1l36.9-55.6
		C239.6,47.9,241.7,47.8,243.1,49.1L243.1,49.1z"/>
	<path class="st0" d="M225.6,37.8c1.6,0.8,2.3,2.8,1.5,4.5l-37.6,55l-39.5,57.4l36.1-59.5l34.7-57C222.1,36.8,224.2,36.6,225.6,37.8
		z"/>
	<ellipse class="st1" cx="150.1" cy="169.5" rx="71.5" ry="54.8"/>
	<path class="st0" d="M230.1,152.5H70.1c0,0-3.6,51.4,45.2,73.1c17.7,7.9,2.5,11.1,2.5,11.1s-4.5,3.7,12.9,3.3
		c9.7-0.3,14.9-0.2,17.9,0v0.1h3v-0.2h17.9c17.4,0.5,12.9-3.3,12.9-3.3s-15.2-3.3,2.5-11.1C233.7,203.9,230.1,152.5,230.1,152.5z"/>
</g>
<text transform="matrix(1 0 0 1 285.81 210.1476)" class="st2 st3 st4">IMPERIAL CHINA</text>
</svg>
